<svg width="300" height="300" viewBox="0 0 300 300" fill="none" xmlns="http://www.w3.org/2000/svg">
  <!-- Bauhaus: Proxy list empty state -->
  <rect x="70" y="48" width="160" height="200" fill="#FFFFFF" stroke="#1A1A1A" stroke-width="3"/>
  <!-- Header bar -->
  <rect x="70" y="48" width="160" height="22" fill="#1A1A1A"/>
  <rect x="82" y="56" width="36" height="6" fill="#CC0000"/>

  <!-- Proxy rows: icon + label + status -->
  <rect x="86" y="90" width="12" height="12" fill="#1A1A1A"/>
  <rect x="106" y="93" width="64" height="6" fill="#1A1A1A"/>
  <rect x="186" y="90" width="28" height="12" fill="#CC0000"/>

  <rect x="70" y="110" width="160" height="1.5" fill="#1A1A1A" opacity="0.15"/>

  <rect x="86" y="122" width="12" height="12" fill="#1A1A1A"/>
  <rect x="106" y="125" width="44" height="6" fill="#D0D0D0"/>
  <rect x="186" y="122" width="28" height="12" fill="#D0D0D0"/>

  <rect x="70" y="142" width="160" height="1.5" fill="#1A1A1A" opacity="0.15"/>

  <rect x="86" y="154" width="12" height="12" fill="#1A1A1A"/>
  <rect x="106" y="157" width="56" height="6" fill="#D0D0D0"/>
  <rect x="186" y="154" width="28" height="12" fill="#D0D0D0"/>

  <!-- Search icon — red accent -->
  <circle cx="210" cy="218" r="34" fill="#CC0000"/>
  <!-- Magnifier circle -->
  <circle cx="205" cy="213" r="12" fill="none" stroke="#FFFFFF" stroke-width="4"/>
  <!-- Magnifier handle -->
  <rect x="213" y="220" width="14" height="4" fill="#FFFFFF" transform="rotate(45 213 220)"/>
</svg>
